<svg width="17" height="15" viewBox="0 0 17 15" fill="none" xmlns="http://www.w3.org/2000/svg">
<path id="Shape" opacity="0.851" fill-rule="evenodd" clip-rule="evenodd" d="M15.582 1.577L14.032 1.515L11.903 10.285L11.425 11.009H2.176L1.814 10.285L0 2.886L1.739 2.778L3.435 9.499H10.201L12.518 0.529L13.504 0L16.031 0.032L15.582 1.577ZM4.375 7.625V7.25H9.499V7.625H4.375ZM4.062 5.219H9.937V5.594H4.062V5.219ZM3.312 3.188H10.499V3.563H3.312V3.188ZM3.85 12.035C4.665 12.035 5.325 12.698 5.325 13.517C5.325 14.336 4.665 15 3.85 15C3.036 15 2.376 14.336 2.376 13.517C2.376 12.698 3.036 12.035 3.85 12.035ZM9.992 12.035C10.806 12.035 11.466 12.698 11.466 13.517C11.466 14.336 10.806 15 9.992 15C9.177 15 8.517 14.336 8.517 13.517C8.517 12.698 9.177 12.035 9.992 12.035Z" fill="#262626"/>
</svg>
